<?xml version="1.0" encoding="UTF-8"?>
<svg width="32" height="32" viewBox="0 0 32 32" fill="none" xmlns="http://www.w3.org/2000/svg">
    <rect width="32" height="32" rx="8" fill="#4F46E5"/>
    <path d="M24 10L22.5 11.5L20.5 9.5L22 8C22.1317 7.86863 22.2898 7.76366 22.4646 7.69091C22.6394 7.61816 22.8272 7.57947 23.0167 7.57712C23.2062 7.57478 23.3949 7.60883 23.5715 7.67724C23.7481 7.74564 23.9089 7.84673 24.0439 7.97492C24.1789 8.1031 24.2853 8.25872 24.3573 8.43151C24.4293 8.6043 24.4654 8.79033 24.4636 8.97716C24.4619 9.16399 24.4223 9.34936 24.3474 9.52088C24.2725 9.6924 24.1639 9.84621 24.0267 9.97167L24 10ZM21.0833 13L19 10.9167L11.5 18.4167L10.8333 21.1667L13.5833 20.5L21.0833 13Z" fill="white"/>
</svg> 